<?xml version="1.0" standalone="no"?><!DOCTYPE svg PUBLIC "-//W3C//DTD SVG 1.1//EN" "http://www.w3.org/Graphics/SVG/1.1/DTD/svg11.dtd"><svg t="1543584976291" class="icon" style="" viewBox="0 0 1536 1024" version="1.1" xmlns="http://www.w3.org/2000/svg" p-id="3836" xmlns:xlink="http://www.w3.org/1999/xlink" width="300" height="200"><defs><style type="text/css"></style></defs><path d="M1262.686 592.215c-35.76-213.842-189.067-214.058-296.272-208.387-9.676-28.331-45.437-248.14-309.667-214.322-216.548 20.888-223.5 188.977-223.5 274.514-63.574 0-250.323 0-266.215 190.965-14.9 198.922 124.166 258.598 249.327 272.524h572.166c51.652-4.974 301.975-39.785 274.162-315.293v0 0zM864.342 474.522c26.796 0 48.518 20.261 48.518 45.267 0 24.998-21.738 45.267-48.518 45.267h-333.907c-26.796 0-48.518-20.261-48.518-45.267 0.003-25 21.743-45.267 48.518-45.267h333.907zM534.414 811.719c-26.796 0-48.521-20.259-48.521-45.267 0-24.998 21.741-45.268 48.521-45.268h333.901c26.797 0 48.521 20.262 48.521 45.268 0 25.001-21.741 45.267-48.521 45.267h-333.902zM868.315 686.232h-333.902c-26.796 0-48.521-20.261-48.521-45.267 0-24.998 21.741-45.267 48.521-45.267h333.902c26.797 0 48.521 20.261 48.521 45.267 0 24.998-21.741 45.267-48.521 45.267v0 0zM829.464 665.57c13.090 0 23.702-10.616 23.702-23.712s-10.611-23.712-23.702-23.712c-13.090 0-23.702 10.616-23.702 23.712 0 13.096 10.611 23.712 23.702 23.712v0 0zM829.464 790.985c13.090 0 23.702-10.616 23.702-23.712s-10.611-23.712-23.702-23.712c-13.090 0-23.702 10.616-23.702 23.712 0 13.096 10.611 23.712 23.702 23.712v0 0zM829.798 544.468c13.090 0 23.702-10.616 23.702-23.711s-10.611-23.712-23.702-23.712c-13.090 0-23.702 10.616-23.702 23.712 0 13.096 10.611 23.711 23.702 23.711v0 0z" p-id="3837" fill="#000000"></path></svg>